<svg width="62" height="71" viewBox="0 0 62 71" fill="none" xmlns="http://www.w3.org/2000/svg">
<g clip-path="url(#clip0)">
<path d="M29.7727 32.6925L2.63893 46.7833V17.7056L29.7727 3.61475V32.6925ZM59.1776 46.7833L32.0439 32.6925V3.61475L59.1776 17.7056V46.7833ZM32.0439 64.6746L59.1776 50.5838V53.8291L32.0439 67.9191V64.6746ZM2.63805 50.5838L29.7727 64.6746V67.9191L2.63893 53.8291L2.63805 50.5838ZM12.2435 44.419L12.8954 44.7119L5.59436 49.4094L4.03666 48.6835L12.2435 44.419ZM21.8601 39.4285L28.9404 43.1011L21.8601 46.7755L14.7807 43.1011L21.8601 39.4285ZM41.0865 46.7746L34.007 43.102L40.5218 39.7223L47.6013 43.395L41.0865 46.7746ZM51.2659 52.0676L43.6202 48.0968L50.135 44.7128L57.7799 48.6835L51.2659 52.0676ZM41.6519 57.058L34.007 53.0872L41.0873 49.4094L48.7322 53.3802L41.6519 57.058ZM24.3939 48.0968L31.4733 44.419L38.5536 48.0968L31.4733 51.7738L24.3939 48.0968ZM30.9087 34.731L37.9881 38.4088L31.4733 41.7929L24.3939 38.115L30.9087 34.731ZM0.455912 54.9671C0.484996 55.0346 0.520076 55.0983 0.56028 55.1587C0.594497 55.2252 0.636365 55.2882 0.682557 55.3467C0.73987 55.4044 0.802342 55.4562 0.870776 55.4997C0.911836 55.5379 30.4023 70.8702 30.4023 70.8702C30.7325 71.0326 31.0841 71.0324 31.3826 70.878L60.8149 55.605C60.9266 55.527 61.0329 55.441 61.1331 55.3476C61.2187 55.2269 61.294 55.0994 61.3598 54.9671C61.3846 54.8864 61.4009 54.8027 61.4077 54.7184C61.4222 54.6642 61.4402 16.9793 61.4402 16.9793C61.4231 16.8398 61.3963 16.7021 61.3598 16.5667C61.2941 16.434 61.2183 16.3068 61.1331 16.1867C61.0758 16.1293 61.0127 16.0785 60.9449 16.035C60.9047 15.9959 31.4143 0.663643 31.4143 0.663643C31.0841 0.50123 30.7325 0.501397 30.434 0.656709L1.00167 15.9288C0.889644 16.0071 0.782987 16.093 0.682557 16.1867C0.635751 16.2452 0.594815 16.3089 0.56028 16.376C0.520076 16.4355 0.484976 16.5001 0.456747 16.5667C0.431084 16.6475 0.415681 16.732 0.407982 16.8163C0.39344 16.8696 0.376343 54.5546 0.376343 54.5546C0.415692 54.8031 0.43194 54.8864 0.456747 54.9671H0.455912Z" fill="white"/>
<path d="M3.46436 48.6258L30.8377 34.4258L57.6849 48.6258L30.8377 62.8258L3.46436 48.6258Z" fill="#F1F1F1"/>
<path d="M3.46436 48.6258L30.8377 34.4258C30.8377 34.4258 18.2032 46.9875 30.8377 62.8258C43.4722 78.6641 3.46436 48.6258 3.46436 48.6258Z" fill="url(#paint0_linear)"/>
</g>
<defs>
<linearGradient id="paint0_linear" x1="18.3845" y1="34.4258" x2="18.3845" y2="67.4377" gradientUnits="userSpaceOnUse">
<stop stop-color="#FF5B14"/>
<stop offset="1" stop-color="#FF7F47"/>
</linearGradient>
<clipPath id="clip0">
<rect width="61.59" height="71" fill="white"/>
</clipPath>
</defs>
</svg>
